# xmcd
#
# Track frame offsets: 
#        150
#        11290
#        22233
#        33161
#        46383
#        59696
#        74066
#        85796
#        97921
#        113130
#        127636
#        143235
#        157368
#        171180
#        183531
#        198439
#        213029
#        227056
#        241612
#        249655
#
# Disc length: 3511 seconds
#
# Revision: 0
# Processed by: cddbd v1.5.2PL0 Copyright (c) Steve Scherf et al.
# Submitted via: ExactAudioCopy v1.0b3
#
DISCID=110db514
DTITLE=Various Artist - Boulevard of Broken Dreams: Melancholy Melodi
DTITLE=es for the Broken-Hearted
DYEAR=2011
DGENRE=Jazz
TTITLE0=Sarah Vaughan - I Cried for You
TTITLE1=Gloria De Haven - Who's Sorry Now?
TTITLE2=Peggy Lee - Goody Goody
TTITLE3=Judy Garland - I'm Nobody's Baby
TTITLE4=Ella Fitzgerald - I'm Gonna Wash That Man Right Outa My Hair
TTITLE5=Connee Boswell - I'm All Dressed Up with a Broken Heart
TTITLE6=Sarah Vaughan - Trouble is a Man
TTITLE7=The Dinning Sisters - Where or When
TTITLE8=Frances Langford - Serenade in Blue
TTITLE9=Billie Holiday - Gloomy Sunday
TTITLE10=Vera Lynn - You'll Never Know
TTITLE11=Lena Horne - Don't Take Your Love From Me
TTITLE12=Martha Raye - Melancholy Mood
TTITLE13=Maxine Sullivan - When Your Lover Has Gone
TTITLE14=Kate Smith - There Goes That Song Again
TTITLE15=Mildred Bailey - Lover, Come Back to Me
TTITLE16=Betty Hutton - I Wish I Didn't Love You So
TTITLE17=Connee Boswell - The Boulevard of Broken Dreams
TTITLE18=Doris Day - It's You or No One
TTITLE19=Judy Garland - I'm Always Chasing Rainbows
EXTD=
EXTT0=
EXTT1=
EXTT2=
EXTT3=
EXTT4=
EXTT5=
EXTT6=
EXTT7=
EXTT8=
EXTT9=
EXTT10=
EXTT11=
EXTT12=
EXTT13=
EXTT14=
EXTT15=
EXTT16=
EXTT17=
EXTT18=
EXTT19=
PLAYORDER=
